name GIL11_free1EmgEnv.mot
datacolumns 51
datarows 10
range 0.60925919 0.61759257
endheader
                time	   rect_fem_l_emgRec	   rect_fem_l_emgEnv	   rect_fem_l_emgAve	   rect_fem_l_emgSDp	   rect_fem_l_emgSDm	   rect_fem_r_emgRec	   rect_fem_r_emgEnv	   rect_fem_r_emgAve	   rect_fem_r_emgSDp	   rect_fem_r_emgSDm	   med_hams_l_emgRec	   med_hams_l_emgEnv	   med_hams_l_emgAve	   med_hams_l_emgSDp	   med_hams_l_emgSDm	   med_hams_r_emgRec	   med_hams_r_emgEnv	   med_hams_r_emgAve	   med_hams_r_emgSDp	   med_hams_r_emgSDm	   lat_hams_l_emgRec	   lat_hams_l_emgEnv	   lat_hams_l_emgAve	   lat_hams_l_emgSDp	   lat_hams_l_emgSDm	   lat_hams_r_emgRec	   lat_hams_r_emgEnv	   lat_hams_r_emgAve	   lat_hams_r_emgSDp	   lat_hams_r_emgSDm	    tib_ant_l_emgRec	    tib_ant_l_emgEnv	    tib_ant_l_emgAve	    tib_ant_l_emgSDp	    tib_ant_l_emgSDm	    tib_ant_r_emgRec	    tib_ant_r_emgEnv	    tib_ant_r_emgAve	    tib_ant_r_emgSDp	    tib_ant_r_emgSDm	    gas_sol_l_emgRec	    gas_sol_l_emgEnv	    gas_sol_l_emgAve	    gas_sol_l_emgSDp	    gas_sol_l_emgSDm	    gas_sol_r_emgRec	    gas_sol_r_emgEnv	    gas_sol_r_emgAve	    gas_sol_r_emgSDp	    gas_sol_r_emgSDm	
          0.60925919	          0.21806158	          0.37823347	          0.27083597	          0.36563827	          0.17603366	          0.14121240	          0.58383402	          0.43814614	          0.55927733	          0.31701495	          0.03355718	          0.07519276	          0.05068876	          0.07580948	          0.02556804	          0.01387792	          0.04679559	          0.18334942	          0.39011055	         -0.02341172	          0.05870270	          0.14730582	          0.09436379	          0.14882528	          0.03990230	          0.00830903	          0.16776380	          0.15644711	          0.21131537	          0.10157885	          0.00805984	          0.08749892	          0.04370767	          0.11460290	         -0.02718755	          0.04502028	          0.34296398	          0.26868054	          0.38354035	          0.15382074	          0.03510661	          0.04553130	          0.03033176	          0.04378927	          0.01687424	          0.02404993	          0.05366733	          0.11898638	          0.25634226	         -0.01836950	
          0.61018515	          0.27385480	          0.37434476	          0.26749387	          0.36243166	          0.17255609	          0.41175077	          0.57567860	          0.43472871	          0.55554647	          0.31391095	          0.04011926	          0.07208179	          0.05010374	          0.07547855	          0.02472893	          0.00063477	          0.04564509	          0.18175478	          0.38818073	         -0.02467117	          0.07350551	          0.14186466	          0.09266603	          0.14719386	          0.03813820	          0.04312287	          0.16571470	          0.15478677	          0.20878834	          0.10078519	          0.03293258	          0.08686130	          0.04339245	          0.11439643	         -0.02761153	          0.04418852	          0.32718604	          0.26511493	          0.37905286	          0.15117700	          0.00180422	          0.04482188	          0.02958529	          0.04263288	          0.01653769	          0.00313994	          0.05362802	          0.12057052	          0.25885328	         -0.01771224	
          0.61111104	          0.24601753	          0.37056773	          0.26415101	          0.35923675	          0.16906527	          0.40113282	          0.56763006	          0.43129602	          0.55179550	          0.31079654	          0.02174441	          0.06904226	          0.04951810	          0.07515536	          0.02388085	          0.00993660	          0.04454904	          0.18022414	          0.38630532	         -0.02585705	          0.05585034	          0.13657782	          0.09098767	          0.14560015	          0.03637518	          0.04734043	          0.16366439	          0.15315707	          0.20631753	          0.09999661	          0.04053799	          0.08622728	          0.04312162	          0.11422847	         -0.02798522	          0.06131418	          0.31163306	          0.26157346	          0.37458337	          0.14856356	          0.00812459	          0.04411388	          0.02886661	          0.04152749	          0.01620573	          0.00735952	          0.05367955	          0.12217494	          0.26137099	         -0.01702111	
          0.61203694	          0.17139009	          0.36690352	          0.26080838	          0.35605384	          0.16556291	          0.27941881	          0.55970022	          0.42784831	          0.54802472	          0.30767190	          0.00627389	          0.06607914	          0.04893223	          0.07483982	          0.02302464	          0.00946437	          0.04350491	          0.17875761	          0.38448443	         -0.02696921	          0.03702887	          0.13145317	          0.08932906	          0.14404391	          0.03461420	          0.01805398	          0.16161266	          0.15155809	          0.20390305	          0.09921312	          0.03620024	          0.08559615	          0.04289726	          0.11410113	         -0.02830661	          0.10162013	          0.29633193	          0.25805652	          0.37013233	          0.14598071	          0.00915422	          0.04340744	          0.02817572	          0.04047277	          0.01587866	          0.06390008	          0.05382529	          0.12379958	          0.26389530	         -0.01629615	
          0.61296290	          0.13162494	          0.36335285	          0.25746685	          0.35288315	          0.16205056	          0.04708638	          0.55190023	          0.42438596	          0.54423448	          0.30453745	          0.00723766	          0.06319713	          0.04834647	          0.07453181	          0.02216114	          0.03252320	          0.04251037	          0.17735514	          0.38271803	         -0.02800775	          0.03802377	          0.12649822	          0.08769053	          0.14252486	          0.03285621	          0.06634309	          0.15955951	          0.14998986	          0.20154494	          0.09843478	          0.03158676	          0.08496720	          0.04272144	          0.11401663	         -0.02857376	          0.07231660	          0.28130832	          0.25456446	          0.36570019	          0.14342874	          0.00671867	          0.04270278	          0.02751262	          0.03946839	          0.01555684	          0.01618885	          0.05406835	          0.12544443	          0.26642607	         -0.01553722	
          0.61388886	          0.12510691	          0.35991596	          0.25412759	          0.34972501	          0.15853018	          0.30703845	          0.54424061	          0.42090970	          0.54042561	          0.30139380	          0.01452273	          0.06040069	          0.04776131	          0.07423129	          0.02129133	          0.03403213	          0.04156329	          0.17601702	          0.38100649	         -0.02897246	          0.05636259	          0.12172002	          0.08607268	          0.14104288	          0.03110247	          0.06587452	          0.15750514	          0.14845264	          0.19924355	          0.09766173	          0.03440509	          0.08433974	          0.04259634	          0.11397723	         -0.02878454	          0.01775168	          0.26658658	          0.25109798	          0.36128782	          0.14090813	          0.00615195	          0.04200018	          0.02687741	          0.03851412	          0.01524070	          0.05385254	          0.05441160	          0.12710921	          0.26896292	         -0.01474449	
          0.61481476	          0.12856703	          0.35659272	          0.25079197	          0.34658006	          0.15500388	          0.14678343	          0.53673123	          0.41742039	          0.53659894	          0.29824183	          0.02273356	          0.05769402	          0.04717721	          0.07393816	          0.02041625	          0.02176713	          0.04066176	          0.17474328	          0.37934995	         -0.02986339	          0.06288596	          0.11712524	          0.08447603	          0.13959783	          0.02935423	          0.04849465	          0.15544992	          0.14694664	          0.19699920	          0.09689407	          0.03291845	          0.08371305	          0.04252416	          0.11398519	         -0.02893687	          0.00787652	          0.25218971	          0.24765792	          0.35689633	          0.13841952	          0.02945382	          0.04130000	          0.02627018	          0.03760972	          0.01493065	          0.03514374	          0.05485762	          0.12879373	          0.27150545	         -0.01391798	
          0.61574066	          0.07529802	          0.35338258	          0.24746083	          0.34344831	          0.15147334	          0.00933818	          0.52938124	          0.41391829	          0.53275480	          0.29508177	          0.01675599	          0.05508103	          0.04659459	          0.07365233	          0.01953684	          0.01137598	          0.03980408	          0.17353393	          0.37774840	         -0.03068054	          0.04060004	          0.11272008	          0.08290092	          0.13818935	          0.02761248	          0.04961779	          0.15339444	          0.14547190	          0.19481193	          0.09613188	          0.00026931	          0.08308644	          0.04250709	          0.11404285	         -0.02902867	          0.01547530	          0.23813932	          0.24424453	          0.35252599	          0.13596307	          0.02862250	          0.04060262	          0.02569098	          0.03675482	          0.01462713	          0.01005401	          0.05540871	          0.13049786	          0.27405345	         -0.01305774	
          0.61666662	          0.04630485	          0.35028459	          0.24413502	          0.34032987	          0.14794017	          0.20781429	          0.52219909	          0.41040373	          0.52889351	          0.29191395	          0.01140518	          0.05256540	          0.04601387	          0.07337370	          0.01865405	          0.00304469	          0.03898877	          0.17238890	          0.37620179	         -0.03142400	          0.00301602	          0.10851030	          0.08134777	          0.13681713	          0.02587841	          0.03089235	          0.15133943	          0.14402843	          0.19268168	          0.09537517	          0.03127775	          0.08245925	          0.04254739	          0.11415255	         -0.02905777	          0.01428345	          0.22445558	          0.24085814	          0.34817725	          0.13353902	          0.00276852	          0.03990849	          0.02513980	          0.03594901	          0.01433059	          0.00847042	          0.05606687	          0.13222155	          0.27660689	         -0.01216379	
          0.61759257	          0.07237810	          0.34729747	          0.24081586	          0.33722515	          0.14440657	          0.37830377	          0.51519252	          0.40687737	          0.52501575	          0.28873899	          0.02278318	          0.05015050	          0.04543559	          0.07310218	          0.01776900	          0.00411853	          0.03821459	          0.17130823	          0.37471031	         -0.03209384	          0.01270224	          0.10450124	          0.07981707	          0.13548091	          0.02415323	          0.03342912	          0.14928579	          0.14261644	          0.19060876	          0.09462411	          0.03302945	          0.08183081	          0.04264735	          0.11431670	         -0.02902199	          0.00865143	          0.21115718	          0.23749939	          0.34385097	          0.13114780	          0.00433211	          0.03921809	          0.02461678	          0.03519202	          0.01404154	          0.00423300	          0.05683379	          0.13396454	          0.27916528	         -0.01123621	
